<?xml version="1.0" encoding="utf-8"?>
<!-- Generator: Adobe Illustrator 22.1.0, SVG Export Plug-In . SVG Version: 6.00 Build 0)  -->
<svg version="1.1" id="Layer_1" xmlns="http://www.w3.org/2000/svg" xmlns:xlink="http://www.w3.org/1999/xlink" x="0px" y="0px"
	 viewBox="0 0 450 160" style="enable-background:new 0 0 450 160;" xml:space="preserve">
<style type="text/css">
	.st0{fill:#21205E;}
</style>
<path class="st0" d="M314.9,153.7l0.2-14h7.1c2.6,0,4,1.6,4,3.6c0,1.7-1.1,2.9-2.4,3.2c1.5,0.2,2.7,1.7,2.7,3.4
	c0,2.2-1.4,3.8-4.3,3.8H314.9z M323.8,143.7c0-1-0.7-1.8-1.9-1.8h-4.2v3.6h4.2C323,145.5,323.8,144.7,323.8,143.7 M324,149.6
	c0-1-0.7-1.9-2.1-1.9h-4.3v3.9h4.3C323.2,151.5,324,150.8,324,149.6 M332.6,153.7v-5.8l-5.4-8.2h2.8l3.8,6l3.8-6h2.8l-5.4,8.2v5.8
	H332.6z M355.1,153.7l-3.1-5.2h-2.5v5.2H347v-14h6.1c2.8,0,4.6,1.8,4.6,4.4c0,2.5-1.6,3.8-3.3,4.1l3.4,5.5H355.1z M355.4,144.1
	c0-1.3-1-2.2-2.4-2.2h-3.4v4.4h3.4C354.4,146.3,355.4,145.4,355.4,144.1 M360.6,153.7v-14h9.6v2.2H363v3.6h7v2.2h-7v3.9h7.1v2.2
	L360.6,153.7L360.6,153.7z M373.2,153.7v-14h9.6v2.2h-7.1v3.6h7v2.2h-7v6.1h-2.5V153.7z M385.4,139.7h2.5v14h-2.5V139.7z
	 M401.6,153.7l-7.3-10v10h-2.4v-14h2.5l7.1,9.7v-9.7h2.5v14H401.6z M408,139.7h2.4v14H408V139.7z M417.2,153.7v-11.8H413v-2.2h10.9
	v2.2h-4.2v11.8H417.2z M426.5,139.7h2.5v14h-2.5V139.7z M436.8,153.7l-5.5-14h2.8l4.2,11.3l4.2-11.3h2.8l-5.5,14H436.8z"/>
<polygon class="st0" points="238.8,125.7 250.4,90.5 262.1,125.7 "/>
<polygon class="st0" points="408.2,125.7 419.9,90.5 431.5,125.7 "/>
<polygon class="st0" points="304.6,125.7 311.7,96.1 318.9,125.7 "/>
<polygon class="st0" points="445.3,125.7 445.3,7.7 4.7,125.7 181.1,125.7 181.1,116 201.2,89.1 181.1,89.1 181.1,78.5 217.3,78.5 
	217.3,88.1 197.1,115.1 217.8,115.1 217.8,125.7 224.9,125.7 242.7,78.5 258.1,78.5 275.9,125.7 291.7,125.7 278.2,78.5 291.8,78.5 
	299,110 307.1,78.5 316.4,78.5 324.5,110 331.6,78.5 345.3,78.5 331.8,125.7 366.7,125.7 366.7,106.7 348.8,78.5 362.5,78.5 
	372.8,95.9 382.9,78.5 396.7,78.5 378.9,106.7 378.9,125.7 394.4,125.7 412.2,78.5 427.6,78.5 "/>
<g>
	<path class="st0" d="M447.9,140.9c0.2,0,0.5-0.2,0.5-0.5s-0.2-0.5-0.5-0.5h-0.6v1.7h0.2v-0.7H447.9l0.5,0.7l0,0h0.2L447.9,140.9z
		 M448.2,140.4c0,0.2-0.2,0.4-0.4,0.4h-0.5v-0.7h0.5C448,140,448.2,140.2,448.2,140.4"/>
	<path class="st0" d="M447.7,142.2c-0.8,0-1.5-0.7-1.5-1.5c0-0.8,0.7-1.5,1.5-1.5s1.5,0.7,1.5,1.5
		C449.2,141.5,448.5,142.2,447.7,142.2 M447.7,139.4c-0.7,0-1.3,0.6-1.3,1.3s0.6,1.3,1.3,1.3c0.7,0,1.3-0.6,1.3-1.3
		S448.4,139.4,447.7,139.4"/>
</g>
</svg>
